<svg width="86" height="87" viewBox="0 0 86 87" fill="none" xmlns="http://www.w3.org/2000/svg">
<path d="M3 3.0177H83V83.4906H3V3.0177Z" fill="#261300"/>
<path d="M0 0V86.5084H86V0H0ZM3.58378 3.6974H82.4176V82.8124H3.58378V3.6974ZM29.8487 48.984L27.0174 60.0748C26.9462 60.3701 26.8387 60.445 26.4799 60.445H21.2124C20.8537 60.445 20.7824 60.3341 20.8537 59.8904L31.0299 23.1424C31.2086 22.4769 31.3161 21.885 31.3887 20.0744C31.3887 19.8151 31.4962 19.7042 31.6749 19.7042H39.1999C39.4512 19.7042 39.5587 19.7777 39.6299 20.0744L51.0249 59.9639C51.0961 60.2592 51.0249 60.445 50.7387 60.445H44.7899C44.5037 60.445 44.3236 60.3715 44.2524 60.1123L41.2787 48.984H29.8487ZM39.8099 42.995L35.5462 25.6198H35.475C34.7225 29.9452 32.8238 37.2652 31.3188 42.995H39.8099ZM55.9349 22.4395C55.9349 20.073 57.5474 18.6686 59.5899 18.6686C61.7762 18.6686 63.2449 20.1839 63.2449 22.4395C63.2449 24.8795 61.7037 26.2104 59.5187 26.2104C57.4399 26.2104 55.9349 24.8795 55.9349 22.4395ZM56.3649 30.8311C56.3649 30.5358 56.4724 30.3875 56.7949 30.3875H62.4212C62.7074 30.3875 62.8512 30.4984 62.8512 30.8311V60C62.8512 60.2952 62.78 60.4436 62.4212 60.4436H56.8675C56.5087 60.4436 56.4012 60.2592 56.4012 59.9625V30.8325L56.3649 30.8311Z" fill="#FF7C00"/>
</svg>
