<svg width="174" height="33" viewBox="0 0 174 33" fill="none" xmlns="http://www.w3.org/2000/svg">
<path d="M106.8 32.4H125.5V28.3H113.1C114.8 21.5 125.2 20 125.2 12.4C125.2 8.30005 122.4 5.30005 116.6 5.30005C112.9 5.30005 109.8 6.40005 107.6 7.50005L108.9 11.3C110.9 10.4 113.1 9.50005 115.8 9.50005C118 9.50005 120 10.4 120 12.9C120.1 18.5 107.9 18.9 106.8 32.4Z" fill="#00629A"/>
<path d="M162.9 26.7C157.2 26.7 152.5 22 152.5 16.3C152.5 10.6 157.2 5.90002 162.9 5.90002C168.6 5.90002 173.3 10.6 173.3 16.3C173.3 22 168.6 26.7 162.9 26.7ZM162.9 7.80002C158.2 7.80002 154.4 11.6 154.4 16.3C154.4 21 158.2 24.8 162.9 24.8C167.6 24.8 171.4 21 171.4 16.3C171.4 11.6 167.6 7.80002 162.9 7.80002Z" fill="#00629A"/>
<path d="M168.8 16.3H163.6V11.1H162.2V17.7H168.8V16.3Z" fill="#00629A"/>
<path d="M0 1.59998H9C15.6 1.59998 18.6 5.39998 18.6 9.39998C18.6 12.1 17.3 14.5 14.9 15.8V15.9C18.5 16.8 20.7 19.7 20.7 23.3C20.7 28.1 17.1 32.4 9.9 32.4H0V1.59998ZM8.3 14.5C11.4 14.5 13.1 12.8 13.1 10.4C13.1 8.09998 11.6 6.29998 8.3 6.29998H5.7V14.5H8.3ZM9.2 27.8C12.9 27.8 15 26.4 15 23.3C15 20.7 13 19.1 9.9 19.1H5.7V27.8H9.2Z" fill="#3FC0F0"/>
<path d="M24.9 3.4C24.9 1.5 26.4 0 28.3 0C30.2 0 31.8 1.4 31.8 3.4C31.8 5.2 30.3 6.7 28.3 6.7C26.3 6.7 24.9 5.3 24.9 3.4ZM25.5 10.3H31.1V32.4H25.5V10.3Z" fill="#3FC0F0"/>
<path d="M38.6 27V14.7H34.6V10.3H38.6V5.19998L44.2 3.59998V10.3H50.9L49.5 14.7H44.2V25.6C44.2 27.7 44.9 28.4 46.4 28.4C47.7 28.4 48.9 27.9 49.8 27.3L51.5 31.1C49.9 32.2 47.2 32.8 45 32.8C41 32.9 38.6 30.7 38.6 27Z" fill="#3FC0F0"/>
<path d="M54.5 10.3H59.2L59.8 12.8C61.8 10.8 63.6 9.80005 65.9 9.80005C66.9 9.80005 68.1 10.1 69 10.7L67 15.4C66 14.8 65.1 14.7 64.5 14.7C63 14.7 61.8 15.3 60 16.9V32.5H54.4V10.3H54.5Z" fill="#3FC0F0"/>
<path d="M71.2 3.4C71.2 1.5 72.7 0 74.6 0C76.5 0 78 1.5 78 3.4C78 5.2 76.5 6.7 74.5 6.7C72.5 6.7 71.2 5.3 71.2 3.4ZM71.8 10.3H77.4V32.4H71.8V10.3Z" fill="#3FC0F0"/>
<path d="M88.7 21.3L80.7 10.3H86.5L91.7 17.5L97 10.3H102.8L94.7 21.3L102.9 32.4H97.1L91.8 25L86.4 32.4H80.6L88.7 21.3Z" fill="#3FC0F0"/>
<path d="M142.9 21.9V5.30005H139.4L126.1 22.6V25.9H138.1V32.5H142.9V25.9H146.9V21.9H142.9ZM138.1 18V21.8H134.9C133.9 21.8 132.1 21.9 131.5 21.9L138.3 12.7C138.3 13.5 138.1 15.9 138.1 18Z" fill="#00629A"/>
</svg>
