<svg width="61" height="87" viewBox="0 0 61 87" fill="none" xmlns="http://www.w3.org/2000/svg">
<path d="M61 16.6538L55.4635 79.1209L30.5 86.0617L5.53647 79.1209L0 16.6538H61ZM13.7423 56.3155L14.8051 68.3627L30.5 72.7998L46.1455 68.4619L49.6058 29.4199H11.3448L12.0369 37.0796H41.2269L40.5348 44.9375H12.7289L13.3963 52.5972H39.8922L39.0024 62.5126L30.5 64.8427L21.9729 62.5374L21.4044 56.3155H13.7423Z" fill="#234BDE"/>
<path fill-rule="evenodd" clip-rule="evenodd" d="M31 72.6612L46.1455 68.4618L49.6058 29.4199H31V21.996H55.6798L50.9789 74.964L31 80.5359V72.6612ZM31 37.0796V44.9375H40.5348L41.2269 37.0796H31ZM31 64.7057V52.5972H39.8922L39.0024 62.5126L31 64.7057Z" fill="#2664EB"/>
<path d="M25.0929 4.53992H21.8344C21.8113 4.27376 21.7496 4.03232 21.6495 3.81559C21.5532 3.59886 21.4184 3.41255 21.2451 3.25665C21.0756 3.09696 20.8695 2.97529 20.6269 2.89164C20.3842 2.80418 20.1088 2.76046 19.8007 2.76046C19.2614 2.76046 18.805 2.88973 18.4314 3.14829C18.0616 3.40684 17.7805 3.77757 17.5879 4.26046C17.3991 4.74335 17.3048 5.32319 17.3048 6C17.3048 6.71483 17.4011 7.31369 17.5936 7.79658C17.7901 8.27567 18.0732 8.63688 18.4429 8.88023C18.8127 9.11977 19.2576 9.23954 19.7776 9.23954C20.0741 9.23954 20.3399 9.20342 20.5749 9.13118C20.8098 9.05513 21.014 8.94677 21.1873 8.80608C21.3606 8.6654 21.5012 8.4962 21.6091 8.29848C21.7208 8.09696 21.7959 7.87072 21.8344 7.61977L25.0929 7.64259C25.0544 8.13688 24.9138 8.64068 24.6712 9.15399C24.4285 9.6635 24.0838 10.135 23.637 10.5684C23.194 10.9981 22.6452 11.3441 21.9904 11.6065C21.3356 11.8688 20.5749 12 19.7082 12C18.6221 12 17.6476 11.77 16.7848 11.3099C15.9259 10.8498 15.246 10.173 14.7453 9.27947C14.2484 8.38593 14 7.29278 14 6C14 4.69962 14.2542 3.60456 14.7626 2.71483C15.2711 1.82129 15.9567 1.14639 16.8195 0.690114C17.6822 0.230038 18.6452 0 19.7082 0C20.4555 0 21.143 0.10076 21.7708 0.302281C22.3987 0.503802 22.9494 0.798479 23.4232 1.18631C23.897 1.57034 24.2783 2.04373 24.5672 2.60646C24.856 3.1692 25.0313 3.81369 25.0929 4.53992Z" fill="black"/>
<path d="M32.9287 3.80989C32.8979 3.42966 32.7535 3.13308 32.4954 2.92015C32.2412 2.70722 31.8541 2.60076 31.3341 2.60076C31.0029 2.60076 30.7313 2.64068 30.5195 2.72053C30.3115 2.79658 30.1574 2.90114 30.0573 3.03422C29.9572 3.1673 29.9052 3.31939 29.9013 3.49049C29.8936 3.63118 29.9186 3.75855 29.9764 3.87262C30.038 3.98289 30.1343 4.08365 30.2653 4.1749C30.3962 4.26236 30.5638 4.34221 30.7679 4.41445C30.9721 4.48669 31.2147 4.55133 31.4959 4.60837L32.4665 4.81369C33.1213 4.95057 33.6818 5.13118 34.1478 5.35551C34.6139 5.57985 34.9952 5.84411 35.2918 6.14829C35.5883 6.44867 35.806 6.78707 35.9446 7.1635C36.0871 7.53992 36.1603 7.95057 36.1642 8.39544C36.1603 9.1635 35.9658 9.81369 35.5806 10.346C35.1955 10.8783 34.6447 11.2833 33.9283 11.5608C33.2157 11.8384 32.3587 11.9772 31.3572 11.9772C30.3288 11.9772 29.4314 11.827 28.6649 11.5266C27.9023 11.2262 27.3091 10.7643 26.8854 10.1407C26.4656 9.51331 26.2537 8.71103 26.2499 7.73384H29.3004C29.3197 8.09125 29.4102 8.39164 29.572 8.63498C29.7338 8.87833 29.961 9.06274 30.2537 9.18821C30.5503 9.31369 30.9027 9.37643 31.311 9.37643C31.6538 9.37643 31.9408 9.3346 32.1719 9.25095C32.403 9.1673 32.5782 9.05133 32.6976 8.90304C32.817 8.75475 32.8787 8.58555 32.8825 8.39544C32.8787 8.21673 32.819 8.06084 32.7034 7.92776C32.5917 7.79087 32.4068 7.6692 32.1488 7.56274C31.8907 7.45247 31.5421 7.34981 31.103 7.25475L29.9244 7.0038C28.8767 6.77947 28.0506 6.40494 27.4458 5.88023C26.845 5.35171 26.5465 4.63118 26.5503 3.71863C26.5465 2.97719 26.7468 2.3289 27.1512 1.77376C27.5595 1.21483 28.1237 0.779467 28.844 0.46768C29.5681 0.155893 30.3982 0 31.3341 0C32.2894 0 33.1156 0.157795 33.8127 0.473384C34.5099 0.788974 35.0472 1.23384 35.4247 1.80799C35.806 2.37833 35.9986 3.04563 36.0024 3.80989H32.9287Z" fill="black"/>
<path d="M43.7646 3.80989C43.7338 3.42966 43.5893 3.13308 43.3312 2.92015C43.077 2.70722 42.6899 2.60076 42.17 2.60076C41.8387 2.60076 41.5672 2.64068 41.3553 2.72053C41.1473 2.79658 40.9933 2.90114 40.8931 3.03422C40.793 3.1673 40.741 3.31939 40.7371 3.49049C40.7294 3.63118 40.7545 3.75855 40.8122 3.87262C40.8739 3.98289 40.9701 4.08365 41.1011 4.1749C41.2321 4.26236 41.3996 4.34221 41.6038 4.41445C41.8079 4.48669 42.0506 4.55133 42.3317 4.60837L43.3024 4.81369C43.9572 4.95057 44.5176 5.13118 44.9836 5.35551C45.4497 5.57985 45.831 5.84411 46.1276 6.14829C46.4242 6.44867 46.6418 6.78707 46.7805 7.1635C46.923 7.53992 46.9961 7.95057 47 8.39544C46.9961 9.1635 46.8016 9.81369 46.4165 10.346C46.0313 10.8783 45.4805 11.2833 44.7641 11.5608C44.0515 11.8384 43.1945 11.9772 42.1931 11.9772C41.1647 11.9772 40.2672 11.827 39.5007 11.5266C38.7381 11.2262 38.1449 10.7643 37.7212 10.1407C37.3014 9.51331 37.0896 8.71103 37.0857 7.73384H40.1363C40.1555 8.09125 40.246 8.39164 40.4078 8.63498C40.5696 8.87833 40.7968 9.06274 41.0896 9.18821C41.3861 9.31369 41.7386 9.37643 42.1468 9.37643C42.4896 9.37643 42.7766 9.3346 43.0077 9.25095C43.2388 9.1673 43.4141 9.05133 43.5335 8.90304C43.6529 8.75475 43.7145 8.58555 43.7183 8.39544C43.7145 8.21673 43.6548 8.06084 43.5392 7.92776C43.4275 7.79087 43.2427 7.6692 42.9846 7.56274C42.7265 7.45247 42.3779 7.34981 41.9389 7.25475L40.7602 7.0038C39.7126 6.77947 38.8864 6.40494 38.2817 5.88023C37.6808 5.35171 37.3823 4.63118 37.3861 3.71863C37.3823 2.97719 37.5826 2.3289 37.987 1.77376C38.3953 1.21483 38.9596 0.779467 39.6798 0.46768C40.4039 0.155893 41.234 0 42.17 0C43.1252 0 43.9514 0.157795 44.6485 0.473384C45.3457 0.788974 45.883 1.23384 46.2605 1.80799C46.6418 2.37833 46.8344 3.04563 46.8382 3.80989H43.7646Z" fill="black"/>
</svg>
