<svg width="57" height="87" viewBox="0 0 57 87" fill="none" xmlns="http://www.w3.org/2000/svg">
<path d="M28.5 43.2541C28.5 39.4302 30.0013 35.7629 32.6737 33.059C35.3461 30.3551 38.9707 28.8361 42.75 28.8361C46.5293 28.8361 50.1539 30.3551 52.8263 33.059C55.4987 35.7629 57 39.4302 57 43.2541C57 47.078 55.4987 50.7453 52.8263 53.4492C50.1539 56.1532 46.5293 57.6722 42.75 57.6722C38.9707 57.6722 35.3461 56.1532 32.6737 53.4492C30.0013 50.7453 28.5 47.078 28.5 43.2541Z" fill="#1ABCFE"/>
<path d="M0 72.0904C0 68.2665 1.50133 64.5992 4.17373 61.8953C6.84612 59.1914 10.4707 57.6724 14.25 57.6724H28.5V72.0904C28.5 75.9143 26.9987 79.5816 24.3263 82.2855C21.6539 84.9895 18.0293 86.5085 14.25 86.5085C10.4707 86.5085 6.84612 84.9895 4.17373 82.2855C1.50133 79.5816 0 75.9143 0 72.0904H0Z" fill="#0ACF83"/>
<path d="M28.5 0V28.8361H42.75C46.5293 28.8361 50.1539 27.3171 52.8263 24.6132C55.4987 21.9093 57 18.242 57 14.4181C57 10.5942 55.4987 6.92687 52.8263 4.22295C50.1539 1.51904 46.5293 0 42.75 0L28.5 0Z" fill="#FF7262"/>
<path d="M0 14.4181C0 18.242 1.50133 21.9093 4.17373 24.6132C6.84612 27.3171 10.4707 28.8361 14.25 28.8361H28.5V0H14.25C10.4707 0 6.84612 1.51904 4.17373 4.22295C1.50133 6.92687 0 10.5942 0 14.4181H0Z" fill="#F24E1E"/>
<path d="M0 43.2541C0 47.078 1.50133 50.7453 4.17373 53.4492C6.84612 56.1532 10.4707 57.6722 14.25 57.6722H28.5V28.8361H14.25C10.4707 28.8361 6.84612 30.3551 4.17373 33.059C1.50133 35.7629 0 39.4302 0 43.2541H0Z" fill="#A259FF"/>
</svg>
