<svg width="62" height="87" viewBox="0 0 62 87" fill="none" xmlns="http://www.w3.org/2000/svg">
<path d="M5.55885 79.8406L0 17.1235H61.0817L55.5173 79.8309L30.5035 86.8061L5.55885 79.8406Z" fill="#E44D26"/>
<path d="M30.3496 81.4745L50.5613 75.8376L55.3171 22.2523H30.3496V81.4745Z" fill="#F16529"/>
<path d="M30.5409 45.5132H20.4219L19.7239 37.6356H30.5409V29.9436H11.3666L11.549 32.0077L13.4289 53.2045H30.5409V45.5132ZM30.5409 65.4892L30.507 65.4982L21.9915 63.1845L21.4469 57.0505H13.7704L14.8416 69.128L30.5057 73.5023L30.5409 73.4919V65.4892Z" fill="#EBEBEB"/>
<path d="M30.5145 45.5132V53.2045H39.9306L39.0432 63.1803L30.5145 65.4961V73.4982L46.191 69.128L46.3057 67.8279L48.1027 47.578L48.2893 45.5132H46.2283H30.5145ZM30.5145 29.9436V37.6356H48.9853L49.138 35.9066L49.487 32.0077L49.6702 29.9436H30.5145Z" fill="white"/>
<path d="M8.09326 12.1399V0H11.2365V4.74213H15.3973V0H18.5405V12.1399H15.3973V7.39772H11.2365V12.1399H8.09326Z" fill="black"/>
<path d="M19.7164 2.65559V0H29.7792V2.65559H26.2968V12.1399H23.1988V2.65559H19.7164Z" fill="black"/>
<path d="M30.9622 0H34.8743L37.5652 6.87609H37.7009L40.3919 0H44.3039V12.1399H41.2285V5.1215H41.1381L38.5602 12.045H36.7059L34.128 5.07408H34.0376V12.1399H30.9622V0Z" fill="black"/>
<path d="M45.7936 12.1399V0H48.9368V9.48426H53.6177V12.1399H45.7936Z" fill="black"/>
</svg>
