<svg width="87" height="87" viewBox="0 0 87 87" fill="none" xmlns="http://www.w3.org/2000/svg">
<path d="M0 0H87V87H0V0Z" fill="#F0DB4F"/>
<path d="M80.9612 66.4293C80.3312 62.4828 77.7729 59.1678 70.1948 56.0768C67.5623 54.8598 64.6275 53.9884 63.7529 51.9816C63.4424 50.8138 63.4012 50.1559 63.5977 49.449C64.1617 47.1547 66.8842 46.4395 69.042 47.0973C70.4318 47.5659 71.7474 48.6432 72.5408 50.3618C76.2519 47.9446 76.2444 47.9605 78.8357 46.2992C77.8869 44.8197 77.3806 44.1369 76.7596 43.5039C74.5276 40.9961 71.4863 39.7046 66.6225 39.8034L64.0889 40.133C61.6611 40.7501 59.3473 42.032 57.9905 43.7506C53.9195 48.3972 55.0805 56.5294 60.0343 59.8761C64.9146 63.5608 72.084 64.399 72.9997 67.8446C73.8908 72.0627 69.9179 73.4282 65.9692 72.9431C63.0591 72.3343 61.4406 70.8465 59.6908 68.141C56.4702 70.0158 56.4702 70.0158 53.159 71.9314C53.9442 73.6583 54.7693 74.4399 56.0855 75.936C62.3151 82.2922 77.9041 81.9799 80.7001 72.3592C80.8135 72.0288 81.5664 69.8258 80.9612 66.4293V66.4293ZM48.752 40.3127H40.7081L40.6751 61.232C40.6751 65.6809 40.9039 69.7595 40.1846 71.0096C39.0078 73.4683 35.9583 73.1635 34.5685 72.6867C33.154 71.9874 32.4348 70.993 31.6014 69.5874C31.3727 69.1838 31.2009 68.8715 31.1432 68.8473L24.6031 72.8761C25.6906 75.1213 27.2927 77.07 29.3447 78.336C32.41 80.1866 36.5299 80.754 40.8386 79.7589C43.6429 78.9372 46.0624 77.2352 47.3292 74.6445C49.1607 71.248 48.7678 67.1369 48.7513 62.5899C48.7925 55.1715 48.752 47.7545 48.752 40.3127Z" fill="#323330"/>
</svg>
