<svg width="87" height="62" viewBox="0 0 87 62" fill="none" xmlns="http://www.w3.org/2000/svg">
<path d="M57.182 55.8619C57.182 59.2675 54.4541 62 51.0544 62C47.6546 62 44.8999 59.2675 44.8999 55.8619C44.8999 52.4564 47.6681 49.6969 51.0544 49.6969C54.4676 49.6969 57.182 52.4564 57.182 55.8619ZM23.0636 49.6969C19.6638 49.6969 16.936 52.4698 16.936 55.8619C16.936 59.254 19.6638 62 23.0636 62C26.4633 62 29.2181 59.2675 29.2181 55.8619C29.2181 52.4564 26.4633 49.6969 23.0636 49.6969ZM62.2615 13.353C21.6526 13.353 11.3056 11.63 0.300049 0C4.92263 6.95918 7.46237 20.043 50.4363 19.4103C95.2242 18.7373 67.9053 31 59.9502 44.8376C85.0384 22.3986 102.87 13.353 62.2615 13.353Z" fill="#277ECE"/>
</svg>
