<svg width="86" height="87" viewBox="0 0 86 87" fill="none" xmlns="http://www.w3.org/2000/svg">
<path d="M3 3.0177H83V83.4906H3V3.0177Z" fill="#0C0824"/>
<path d="M3.58436 3.698H82.4156V82.8104H3.58436V3.698ZM0 86.5084H86V0H0V86.5084ZM57.9794 35.4906C55.1475 35.4906 54.18 36.9705 54.18 38.1905C54.18 39.5214 54.825 40.4466 58.6244 42.4779C64.2512 45.2886 65.9958 47.9852 65.9958 51.9431C65.9958 57.8592 61.6251 61.0375 55.7126 61.0375C53.1752 61.1345 50.6531 60.5906 48.3658 59.4531C48.1139 59.3422 48.0801 59.1584 48.0801 58.8606V53.4197C48.0801 53.049 48.2583 52.9381 48.5101 53.125C50.6583 54.5502 53.1587 55.307 55.7126 55.3052C58.5445 55.3052 59.727 54.0852 59.727 52.4216C59.727 51.0907 58.9039 49.9087 55.2826 47.9852C50.1933 45.4724 48.0801 42.9151 48.0801 38.6689C48.0801 33.8999 51.6983 29.9452 57.9701 29.9452C60.1533 29.8485 62.3333 30.2007 64.3833 30.9814C64.5013 31.0605 64.5969 31.1705 64.66 31.3003C64.7232 31.4301 64.7517 31.5748 64.7426 31.7198V36.7898C64.7426 37.0845 64.5645 37.2715 64.2051 37.1606C62.3105 36.0353 60.156 35.4605 57.9701 35.497L57.9794 35.4906ZM27.1606 39.8889C27.9838 39.9618 28.6288 39.9618 30.0631 39.9618C34.2556 39.9618 38.1963 38.4471 38.1963 32.569C38.1963 27.8728 35.3644 25.5089 30.6006 25.5089C29.1663 25.5089 27.8056 25.5818 27.1606 25.6198V39.8889ZM20.7813 20.2423C20.7813 19.9825 21.2819 19.7987 21.5706 19.7987C23.865 19.6878 27.2681 19.6149 30.8156 19.6149C40.7425 19.6149 44.6125 25.2332 44.6125 32.4074C44.6125 41.7966 38.0181 45.8273 29.9219 45.8273C28.5612 45.8273 28.0944 45.7544 27.1269 45.7544V59.9506C27.1269 60.2453 27.0194 60.3943 26.6969 60.3943H21.2144C20.9287 60.3943 20.7844 60.2834 20.7844 59.9506V20.2582L20.7813 20.2423Z" fill="#31C5F0"/>
</svg>
