<svg width="87" height="45" viewBox="0 0 87 45" fill="none" xmlns="http://www.w3.org/2000/svg">
<path d="M43.5 0C19.4765 0 0 10.0738 0 22.5C0 34.9262 19.4765 45 43.5 45C67.5235 45 87 34.9262 87 22.5C87 10.0738 67.5235 0 43.5 0V0ZM32.1811 26.8836C31.1429 27.8748 29.9902 28.284 28.7207 28.7055C27.4511 29.1277 25.8356 29.0405 23.8711 29.0405H19.4189L18.1849 36.3077H12.9865L17.6253 11.5992H27.622C30.6296 11.5992 32.8233 12.4822 34.2025 14.0933C35.5817 15.7044 35.996 17.9914 35.4464 20.8787C35.2192 22.0683 34.8369 23.1744 34.2972 24.1598C33.7568 25.146 33.0511 26.0667 32.1811 26.8836V26.8836ZM47.3549 29.0405L49.4062 18.5612C49.6397 17.3345 49.5543 16.4232 49.1491 15.9777C48.7433 15.5315 47.8803 15.2328 46.561 15.2328H42.4384L39.7818 29.0405H34.624L39.2628 5.0587H44.4206L43.1874 11.5992H47.7821C50.6736 11.5992 52.6672 12.1915 53.7644 13.2205C54.8617 14.2495 55.1906 15.6594 54.752 17.9645L52.5939 29.0405H47.3549V29.0405ZM76.02 20.9172C75.7936 22.1068 75.4105 23.194 74.8715 24.1787C74.3318 25.1649 73.6269 26.0667 72.7561 26.8836C71.718 27.8748 70.5645 28.284 69.2957 28.7055C68.0269 29.1277 66.4099 29.0405 64.4454 29.0405H59.9932L58.76 36.3077H53.5615L58.1996 11.5992H68.197C71.2046 11.5992 73.3983 12.4822 74.7768 14.0933C76.1546 15.7044 76.5697 18.0307 76.02 20.9172V20.9172ZM66.2269 15.2328H62.6661L60.7244 25.4069H63.8872C65.982 25.4069 67.5441 25.1961 68.5694 24.3895C69.5962 23.5843 70.2875 22.3343 70.6471 20.4499C70.9917 18.6397 70.8351 17.2276 70.1772 16.4835C69.5185 15.7393 68.202 15.2328 66.2269 15.2328V15.2328ZM25.6526 15.2328H22.0911L20.1494 25.4069H23.3115C25.4069 25.4069 26.9684 25.1961 27.9944 24.3895C29.0204 23.5843 29.7125 22.3343 30.0713 20.4499C30.416 18.6397 30.2593 17.2276 29.6014 16.4835C28.9435 15.7393 27.6277 15.2328 25.6526 15.2328Z" fill="#6181B6"/>
</svg>
