<svg width="87" height="65" viewBox="0 0 87 65" fill="none" xmlns="http://www.w3.org/2000/svg">
<path d="M74.8994 37.326C71.8571 37.3433 69.2234 38.0713 67.0135 39.1559C66.1973 37.5463 65.3812 36.141 65.2458 35.091C65.0929 33.8715 64.9054 33.1261 65.0929 31.6689C65.2805 30.2116 66.1302 28.1451 66.1302 27.9767C66.1128 27.8244 65.945 27.079 64.1923 27.0617C62.4396 27.0444 60.9277 27.4009 60.7587 27.8694C60.4555 28.7154 60.2114 29.5812 60.0283 30.4608C59.7226 32.0531 56.5275 37.6952 54.7089 40.6581C54.1138 39.5066 53.6045 38.489 53.5026 37.6767C53.3498 36.4571 53.1623 35.7118 53.3498 34.2545C53.5373 32.7973 54.387 30.7308 54.387 30.5624C54.3697 30.4101 54.2018 29.6647 52.4491 29.6474C50.6965 29.6301 49.1846 29.9866 49.0156 30.4551C48.8466 30.9235 48.659 31.9965 48.2863 33.0465C47.9297 34.0849 43.6811 43.515 42.5756 45.9691C42.0153 47.2221 41.5337 48.2225 41.1633 48.8998C40.7928 49.577 41.1459 48.9505 41.1123 49.0186L40.6377 49.9163V49.9336C40.3992 50.357 40.1445 50.7643 40.0241 50.7643C39.9396 50.7643 39.7695 49.629 40.0589 48.0713C40.6875 44.8026 42.2167 39.7039 42.2005 39.517C42.2005 39.4328 42.4899 38.5363 41.2165 38.0771C39.9755 37.6202 39.5345 38.3817 39.4337 38.3817C39.333 38.3817 39.2485 38.6528 39.2485 38.6528C39.2485 38.6528 40.6261 32.9104 36.6137 32.9104C34.0982 32.9104 30.631 35.6379 28.9154 38.1278L20.2481 42.8538L20.0629 42.6508C15.2008 37.484 6.21165 33.8242 6.58557 26.8806C6.72102 24.3572 7.6043 17.6998 23.853 9.63699C37.1601 3.03147 47.8163 4.84294 49.6685 8.87548C52.3033 14.633 43.9752 25.3402 30.1413 26.8817C24.874 27.4748 22.1026 25.4418 21.4057 24.6803C20.6764 23.8726 20.5722 23.8495 20.3014 24.003C19.8591 24.2407 20.1312 24.9514 20.3014 25.376C20.7088 26.4433 22.4083 28.3413 25.2977 29.2874C27.8295 30.1181 34.0148 30.5751 41.4932 27.6952C49.8664 24.4241 56.4094 15.4591 54.4901 7.95359C52.5337 0.314263 39.8227 -2.1918 27.8064 2.05997C20.6521 4.60179 12.9028 8.56395 7.32763 13.763C0.700109 19.9289 -0.354506 25.3149 0.0877144 27.5509C1.63433 35.5295 12.6644 40.7297 17.0819 44.5741L16.4684 44.9134C14.2596 45.9979 5.847 50.3847 3.73893 55.0253C1.35997 60.2751 4.11285 64.0538 5.94771 64.5615C11.6236 66.1364 17.4362 63.3084 20.5803 58.6494C23.706 53.9915 23.3332 47.9444 21.8885 45.1845L21.8375 45.083L23.5705 44.0676C24.6248 43.4504 25.69 42.8519 26.7656 42.2723C26.2215 43.7457 25.8314 45.4914 25.6265 48.0298C25.388 51.0112 26.6105 54.8718 28.2266 56.3972C28.9409 57.0583 29.7894 57.0744 30.3173 57.0744C32.1869 57.0744 33.0378 55.533 33.9708 53.6869C35.1262 51.4335 36.1472 48.8259 36.1472 48.8259C36.1472 48.8259 34.8738 55.8895 38.356 55.8895C39.6294 55.8895 40.9051 54.2465 41.4816 53.3996V53.4169C41.4816 53.4169 41.5164 53.3661 41.5835 53.2473C41.7189 53.0442 41.7872 52.9242 41.7872 52.9242V52.8896C42.2966 52.0093 43.4357 50.0051 45.1351 46.6556C47.3277 42.3519 49.4346 36.9671 49.4346 36.9671C49.4346 36.9671 49.6384 38.2882 50.2681 40.4562C50.6421 41.7439 51.4582 43.1492 52.0857 44.5211L51.2695 45.6403L51.2869 45.6576C50.8794 46.1999 50.4186 46.7768 49.944 47.3513C48.211 49.4167 46.1377 51.7727 45.8656 52.4512C45.5415 53.2588 45.6109 53.8403 46.2395 54.3145C46.698 54.6538 47.5129 54.7207 48.3812 54.6538C49.944 54.5522 51.0438 54.1622 51.5763 53.9269C52.5573 53.5784 53.4841 53.0936 54.3292 52.4869C56.0286 51.2339 57.0658 49.4547 56.964 47.0837C56.913 45.7799 56.4893 44.4922 55.9614 43.2727L56.4199 42.5954C59.1056 38.684 61.1778 34.3803 61.1778 34.3803C61.1778 34.3803 61.3815 35.7014 62.0113 37.8694C62.3354 38.9701 62.9802 40.1735 63.5579 41.3585C61.0423 43.4076 59.4622 45.7799 58.9181 47.3375C57.9156 50.2174 58.6981 51.5212 60.1753 51.8373C60.8386 51.9723 61.7902 51.6677 62.5021 51.3643C63.3854 51.0758 64.4562 50.5855 65.4426 49.8563C67.142 48.6032 68.7731 46.8587 68.6886 44.5026C68.6377 43.418 68.3482 42.3519 67.9593 41.3354C70.1009 40.4551 72.8712 39.9462 76.3892 40.3697C83.9521 41.25 85.4478 45.9599 85.1584 47.9248C84.869 49.8897 83.2888 50.9743 82.7621 51.3124C82.2354 51.6354 82.0652 51.7531 82.1161 51.9896C82.1856 52.345 82.4217 52.3289 82.8802 52.2608C83.5088 52.1592 86.8567 50.6512 86.9933 47.0271C87.197 42.3692 82.7609 37.289 74.8924 37.3386L74.8994 37.326ZM16.5737 56.9233C14.0755 59.6509 10.5575 60.6847 9.06062 59.8032C7.4457 58.8721 8.07662 54.8568 11.1513 51.9608C13.0209 50.1989 15.4508 48.5732 17.0484 47.574L18.595 46.6429C18.6969 46.5737 18.7652 46.5414 18.7652 46.5414C18.8844 46.4721 19.0198 46.3891 19.1564 46.3037C20.2956 50.4366 19.2074 54.0619 16.5749 56.9244L16.5737 56.9233ZM34.8437 44.5407C33.9755 46.6579 32.1417 52.0958 31.0373 51.79C30.0858 51.5362 29.5093 47.4194 30.8521 43.3557C31.5317 41.3066 32.9764 38.8559 33.8273 37.9179C35.2049 36.3948 36.6982 35.8849 37.0733 36.5125C37.5155 37.326 35.3913 43.2207 34.8472 44.543L34.8437 44.5407ZM49.9174 51.7231C49.5435 51.9077 49.2031 52.0462 49.0491 51.9423C48.9299 51.8731 49.202 51.6193 49.202 51.6193C49.202 51.6193 51.0889 49.6036 51.8368 48.6725L53.3151 46.7918V46.9948C53.3151 49.434 50.9697 51.0597 49.9162 51.7208L49.9174 51.7231ZM61.5425 49.0694C61.2704 48.8663 61.304 48.2386 62.222 46.2748C62.5785 45.496 63.3947 44.1911 64.8035 42.9554C64.9737 43.463 65.0756 43.9546 65.0582 44.4126C65.0409 47.4621 62.8656 48.5963 61.539 49.0705L61.5425 49.0694Z" fill="#CF649A"/>
</svg>
