<svg width="154" height="18" viewBox="0 0 154 18" fill="none" xmlns="http://www.w3.org/2000/svg">
<path d="M9.08 0.699999C10.664 0.699999 12.088 0.939999 13.352 1.42C14.616 1.9 15.616 2.612 16.352 3.556C17.104 4.484 17.48 5.62 17.48 6.964H12.416C12.416 6.276 12.112 5.724 11.504 5.308C10.896 4.876 10.16 4.66 9.296 4.66C8.048 4.66 7.104 4.996 6.464 5.668C5.824 6.324 5.504 7.26 5.504 8.476V10.012C5.504 11.228 5.824 12.172 6.464 12.844C7.104 13.5 8.048 13.828 9.296 13.828C10.16 13.828 10.896 13.628 11.504 13.228C12.112 12.812 12.416 12.284 12.416 11.644H8.672V8.284H17.48V17.5H14.744L14.216 15.868C12.712 17.148 10.744 17.788 8.312 17.788C5.576 17.788 3.52 17.076 2.144 15.652C0.768 14.212 0.08 12.076 0.08 9.244C0.08 6.444 0.856 4.324 2.408 2.884C3.976 1.428 6.2 0.699999 9.08 0.699999ZM87.4479 0.987999H100.792V4.948H92.7519V7.78H99.6639V11.572H92.7519V17.5H87.4479V0.987999ZM103.456 0.987999H108.76V13.276H117.232V17.5H103.456V0.987999ZM119.464 0.987999H133.744V4.948H124.768V7.228H132.448V11.02H124.768V13.54H133.912V17.5H119.464V0.987999ZM153.68 17.5H147.248L144.2 12.364H144.104L141.056 17.5H135.104L141.008 8.764L135.68 0.987999H142.088L144.584 5.212H144.68L147.2 0.987999H153.128L147.776 8.788L153.68 17.5Z" fill="#EF8686"/>
<path d="M28.1362 4.516C28.5042 4.516 28.8322 4.564 29.1202 4.66C29.4082 4.74 29.5522 4.788 29.5522 4.804V8.812H28.0162C27.0242 8.812 26.3042 9.068 25.8562 9.58C25.4242 10.092 25.2082 10.852 25.2082 11.86V17.5H20.4322V4.828H24.3442L24.6562 6.748C24.9442 6.012 25.4002 5.46 26.0242 5.092C26.6482 4.708 27.3522 4.516 28.1362 4.516ZM31.2643 3.34V0.0999994H36.0403V3.34H31.2643ZM31.2643 17.5V4.828H36.0403V17.5H31.2643ZM48.3044 17.5L47.8964 15.7C46.9684 17.092 45.6244 17.788 43.8644 17.788C42.1524 17.788 40.8324 17.228 39.9044 16.108C38.9764 14.988 38.5124 13.332 38.5124 11.14C38.5124 8.964 38.9764 7.324 39.9044 6.22C40.8324 5.1 42.1524 4.54 43.8644 4.54C45.3204 4.54 46.5044 5.028 47.4164 6.004V0.0999994H52.1924V17.5H48.3044ZM45.3524 8.068C43.9764 8.068 43.2884 8.892 43.2884 10.54V11.812C43.2884 13.444 43.9764 14.26 45.3524 14.26C46.0564 14.26 46.5844 14.012 46.9364 13.516C47.2884 13.02 47.4644 12.372 47.4644 11.572V10.78C47.4644 9.98 47.2884 9.332 46.9364 8.836C46.5844 8.324 46.0564 8.068 45.3524 8.068ZM61.6483 4.54C63.9683 4.54 65.7363 5.084 66.9523 6.172C68.1843 7.26 68.8003 8.924 68.8003 11.164V11.98H59.2963C59.2963 12.892 59.4963 13.58 59.8963 14.044C60.3123 14.508 60.9603 14.74 61.8403 14.74C62.6403 14.74 63.2243 14.572 63.5923 14.236C63.9763 13.9 64.1683 13.452 64.1683 12.892H68.8003C68.8003 14.428 68.2163 15.628 67.0483 16.492C65.8803 17.356 64.1763 17.788 61.9363 17.788C59.5843 17.788 57.7603 17.244 56.4643 16.156C55.1683 15.052 54.5203 13.388 54.5203 11.164C54.5203 8.988 55.1523 7.34 56.4163 6.22C57.6803 5.1 59.4243 4.54 61.6483 4.54ZM61.8403 7.588C60.3363 7.588 59.4963 8.3 59.3203 9.724H63.9763C63.9763 9.068 63.7843 8.548 63.4003 8.164C63.0323 7.78 62.5123 7.588 61.8403 7.588ZM79.8401 4.54C81.3121 4.54 82.4161 4.948 83.1521 5.764C83.8881 6.58 84.2561 7.756 84.2561 9.292V17.5H79.4801V9.868C79.4801 9.324 79.3361 8.892 79.0481 8.572C78.7761 8.236 78.3841 8.068 77.8721 8.068C77.2801 8.068 76.8001 8.26 76.4321 8.644C76.0641 9.028 75.8801 9.5 75.8801 10.06V17.5H71.1041V4.828H75.0161L75.3281 6.748C75.8241 6.076 76.4721 5.54 77.2721 5.14C78.0881 4.74 78.9441 4.54 79.8401 4.54Z" fill="#515151"/>
</svg>
