<svg width="80" height="80" viewBox="0 0 80 80" fill="none" xmlns="http://www.w3.org/2000/svg">
<path fill-rule="evenodd" clip-rule="evenodd" d="M40 80C17.9086 80 0 62.0914 0 40C0 17.9086 17.9086 0 40 0C62.0914 0 80 17.9086 80 40C80 62.0914 62.0914 80 40 80ZM38.9393 22.9393L29.3934 32.4853C28.8076 33.071 28.8076 34.0208 29.3934 34.6066C29.9791 35.1924 30.929 35.1924 31.5148 34.6066L38.5 27.6213V56H41.5V27.6213L48.4852 34.6066C49.071 35.1924 50.0209 35.1924 50.6066 34.6066C51.1924 34.0208 51.1924 33.071 50.6066 32.4853L41.0607 22.9393C40.4749 22.3535 39.5251 22.3535 38.9393 22.9393Z" fill="#CBA3FF"/>
</svg>
